STARTFONT 2.1
FONT -DIGITAL-VT220-medium-I-Normal-136col-20-200-150-75-c-170-iso10646-1
SIZE 20 75 75
FONTBOUNDINGBOX 23 20 -3 -4
STARTPROPERTIES 21
FOUNDRY "DIGITAL"
FAMILY_NAME "vt220"
WEIGHT_NAME "medium"
RELATIVE_SETWIDTH 50
SLANT "I"
SETWIDTH_NAME "Normal"
ADD_STYLE_NAME "136col"
PIXEL_SIZE 20
POINT_SIZE 200
RESOLUTION_X 75
RESOLUTION_Y 75
SPACING "c"
CHARSET_REGISTRY "ISO10646"
CHARSET_ENCODING "1"
CAP_HEIGHT 14
X_HEIGHT 10
WEIGHT 10
QUAD_WIDTH 17
FONT_ASCENT 16
FONT_DESCENT 4
AVERAGE_WIDTH 170
ENDPROPERTIES
CHARS 237
STARTCHAR U+00FD
ENCODING 253
SWIDTH 1000 0
DWIDTH 17 0
BBX 23 20 -3 -4
BITMAP
000000
000000
000000
000000
000000
000000
000000
000000
000000
000000
000000
000000
000000
000000
000000
000000
000000
000000
000000
000000
ENDCHAR
STARTCHAR U+25A1
ENCODING 9633
SWIDTH 1000 0
DWIDTH 17 0
BBX 23 20 -3 -4
BITMAP
000000
000000
03FFF8
07FFF0
070070
070070
0E00E0
0E00E0
0E00E0
1C01C0
1C01C0
1C01C0
380380
380380
3FFF80
7FFF00
000000
000000
000000
000000
ENDCHAR
STARTCHAR U+00FE
ENCODING 254
SWIDTH 1000 0
DWIDTH 17 0
BBX 23 20 -3 -4
BITMAP
000000
000000
038000
070000
070000
070000
0EFF80
0EFF80
0F80E0
1F01C0
1F01C0
1F01C0
3BFE00
3BFE00
380000
700000
700000
700000
E00000
E00000
ENDCHAR
STARTCHAR U+00FF
ENCODING 255
SWIDTH 1000 0
DWIDTH 17 0
BBX 23 20 -3 -4
BITMAP
000000
000000
00E0E0
01C1C0
000000
000000
0E0380
0E0380
0E0380
1C0700
1C1F00
1C1F00
0FEE00
0FEE00
000E00
001C00
701C00
701C00
3FE000
3FE000
ENDCHAR
STARTCHAR U+00FC
ENCODING 252
SWIDTH 1000 0
DWIDTH 17 0
BBX 23 20 -3 -4
BITMAP
000000
000000
00E0E0
01C1C0
000000
000000
0E0380
0E0380
0E0380
1C0700
1C0700
1C0700
380E00
380E00
0FFB80
1FF700
000000
000000
000000
000000
ENDCHAR
STARTCHAR U+00FB
ENCODING 251
SWIDTH 1000 0
DWIDTH 17 0
BBX 23 20 -3 -4
BITMAP
003F80
003F80
00E0E0
01C1C0
000000
000000
0E0380
0E0380
0E0380
1C0700
1C0700
1C0700
380E00
380E00
0FFB80
1FF700
000000
000000
000000
000000
ENDCHAR
STARTCHAR U+00FA
ENCODING 250
SWIDTH 1000 0
DWIDTH 17 0
BBX 23 20 -3 -4
BITMAP
000000
000000
000F80
001F00
01F000
01F000
0E0380
0E0380
0E0380
1C0700
1C0700
1C0700
380E00
380E00
0FFB80
1FF700
000000
000000
000000
000000
ENDCHAR
STARTCHAR U+00F9
ENCODING 249
SWIDTH 1000 0
DWIDTH 17 0
BBX 23 20 -3 -4
BITMAP
000000
000000
00F800
01F000
001F00
001F00
0E0380
0E0380
0E0380
1C0700
1C0700
1C0700
380E00
380E00
0FFB80
1FF700
000000
000000
000000
000000
ENDCHAR
STARTCHAR U+00F8
ENCODING 248
SWIDTH 1000 0
DWIDTH 17 0
BBX 23 20 -3 -4
BITMAP
000000
000000
000000
000000
000070
000070
03FF80
03FF80
0E0EE0
1C1DC0
1C71C0
1C71C0
3B8380
3B8380
0FFE00
1FFC00
700000
700000
000000
000000
ENDCHAR
STARTCHAR U+0153
ENCODING 339
SWIDTH 1000 0
DWIDTH 17 0
BBX 23 20 -3 -4
BITMAP
000000
000000
000000
000000
000000
000000
03EF80
03EF80
0E38E0
1C71C0
1C7FC0
1C7FC0
38E000
38E000
0FBF80
1F7F00
000000
000000
000000
000000
ENDCHAR
STARTCHAR U+00F6
ENCODING 246
SWIDTH 1000 0
DWIDTH 17 0
BBX 23 20 -3 -4
BITMAP
000000
000000
00E0E0
01C1C0
000000
000000
03FF80
03FF80
0E00E0
1C01C0
1C01C0
1C01C0
380380
380380
0FFE00
1FFC00
000000
000000
000000
000000
ENDCHAR
STARTCHAR U+00F5
ENCODING 245
SWIDTH 1000 0
DWIDTH 17 0
BBX 23 20 -3 -4
BITMAP
00F8E0
00F8E0
038F80
071F00
000000
000000
03FF80
03FF80
0E00E0
1C01C0
1C01C0
1C01C0
380380
380380
0FFE00
1FFC00
000000
000000
000000
000000
ENDCHAR
STARTCHAR U+00F4
ENCODING 244
SWIDTH 1000 0
DWIDTH 17 0
BBX 23 20 -3 -4
BITMAP
003F80
003F80
00E0E0
01C1C0
000000
000000
03FF80
03FF80
0E00E0
1C01C0
1C01C0
1C01C0
380380
380380
0FFE00
1FFC00
000000
000000
000000
000000
ENDCHAR
STARTCHAR U+00F3
ENCODING 243
SWIDTH 1000 0
DWIDTH 17 0
BBX 23 20 -3 -4
BITMAP
000000
000000
000F80
001F00
01F000
01F000
03FF80
03FF80
0E00E0
1C01C0
1C01C0
1C01C0
380380
380380
0FFE00
1FFC00
000000
000000
000000
000000
ENDCHAR
STARTCHAR U+00F2
ENCODING 242
SWIDTH 1000 0
DWIDTH 17 0
BBX 23 20 -3 -4
BITMAP
000000
000000
003E00
007C00
0007C0
0007C0
03FF80
03FF80
0E00E0
1C01C0
1C01C0
1C01C0
380380
380380
0FFE00
1FFC00
000000
000000
000000
000000
ENDCHAR
STARTCHAR U+00F1
ENCODING 241
SWIDTH 1000 0
DWIDTH 17 0
BBX 23 20 -3 -4
BITMAP
00F8E0
00F8E0
038F80
071F00
000000
000000
0EFF80
0EFF80
0F80E0
1F01C0
1C01C0
1C01C0
380380
380380
380380
700700
000000
000000
000000
000000
ENDCHAR
STARTCHAR U+00F0
ENCODING 240
SWIDTH 1000 0
DWIDTH 17 0
BBX 23 20 -3 -4
BITMAP
000E38
000E38
0003E0
0007C0
001C70
001C70
03FEE0
03FEE0
0E03E0
1C07C0
1C01C0
1C01C0
380E00
380E00
0FF800
1FF000
000000
000000
000000
000000
ENDCHAR
STARTCHAR U+00EF
ENCODING 239
SWIDTH 1000 0
DWIDTH 17 0
BBX 23 20 -3 -4
BITMAP
000000
000000
00E0E0
01C1C0
000000
000000
00F800
00F800
003800
007000
007000
007000
00E000
00E000
0FFE00
1FFC00
000000
000000
000000
000000
ENDCHAR
STARTCHAR U+00EE
ENCODING 238
SWIDTH 1000 0
DWIDTH 17 0
BBX 23 20 -3 -4
BITMAP
003F80
003F80
00E0E0
01C1C0
000000
000000
00F800
00F800
003800
007000
007000
007000
00E000
00E000
0FFE00
1FFC00
000000
000000
000000
000000
ENDCHAR
STARTCHAR U+00ED
ENCODING 237
SWIDTH 1000 0
DWIDTH 17 0
BBX 23 20 -3 -4
BITMAP
000000
000000
000F80
001F00
01F000
01F000
00F800
00F800
003800
007000
007000
007000
00E000
00E000
0FFE00
1FFC00
000000
000000
000000
000000
ENDCHAR
STARTCHAR U+00EC
ENCODING 236
SWIDTH 1000 0
DWIDTH 17 0
BBX 23 20 -3 -4
BITMAP
000000
000000
00F800
01F000
001F00
001F00
00F800
00F800
003800
007000
007000
007000
00E000
00E000
0FFE00
1FFC00
000000
000000
000000
000000
ENDCHAR
STARTCHAR U+00EB
ENCODING 235
SWIDTH 1000 0
DWIDTH 17 0
BBX 23 20 -3 -4
BITMAP
000000
000000
00E0E0
01C1C0
000000
000000
03FF80
03FF80
0E00E0
1C01C0
1FFFC0
1FFFC0
380000
380000
0FFE00
1FFC00
000000
000000
000000
000000
ENDCHAR
STARTCHAR U+00EA
ENCODING 234
SWIDTH 1000 0
DWIDTH 17 0
BBX 23 20 -3 -4
BITMAP
003F80
003F80
00E0E0
01C1C0
000000
000000
03FF80
03FF80
0E00E0
1C01C0
1FFFC0
1FFFC0
380000
380000
0FFE00
1FFC00
000000
000000
000000
000000
ENDCHAR
STARTCHAR U+00E9
ENCODING 233
SWIDTH 1000 0
DWIDTH 17 0
BBX 23 20 -3 -4
BITMAP
000000
000000
000F80
001F00
01F000
01F000
03FF80
03FF80
0E00E0
1C01C0
1FFFC0
1FFFC0
380000
380000
0FFE00
1FFC00
000000
000000
000000
000000
ENDCHAR
STARTCHAR U+00E8
ENCODING 232
SWIDTH 1000 0
DWIDTH 17 0
BBX 23 20 -3 -4
BITMAP
000000
000000
003E00
007C00
0007C0
0007C0
03FF80
03FF80
0E00E0
1C01C0
1FFFC0
1FFFC0
380000
380000
0FFE00
1FFC00
000000
000000
000000
000000
ENDCHAR
STARTCHAR U+00E7
ENCODING 231
SWIDTH 1000 0
DWIDTH 17 0
BBX 23 20 -3 -4
BITMAP
000000
000000
000000
000000
000000
000000
03FF80
03FF80
0E00E0
1C01C0
1C0000
1C0000
380380
380380
0FFE00
1FFC00
007000
007000
0FE000
0FE000
ENDCHAR
STARTCHAR U+00E6
ENCODING 230
SWIDTH 1000 0
DWIDTH 17 0
BBX 23 20 -3 -4
BITMAP
000000
000000
000000
000000
000000
000000
03EF80
03EF80
0038E0
0071C0
07FFC0
07FFC0
38E000
38E000
0FFF80
1FFF00
000000
000000
000000
000000
ENDCHAR
STARTCHAR U+00E5
ENCODING 229
SWIDTH 1000 0
DWIDTH 17 0
BBX 23 20 -3 -4
BITMAP
003F80
003F80
00E0E0
01C1C0
007F00
007F00
03FF80
03FF80
0000E0
0001C0
07FFC0
07FFC0
380F80
380F80
0FFB80
1FF700
000000
000000
000000
000000
ENDCHAR
STARTCHAR U+00E4
ENCODING 228
SWIDTH 1000 0
DWIDTH 17 0
BBX 23 20 -3 -4
BITMAP
000000
000000
00E0E0
01C1C0
000000
000000
03FF80
03FF80
0000E0
0001C0
07FFC0
07FFC0
380F80
380F80
0FFB80
1FF700
000000
000000
000000
000000
ENDCHAR
STARTCHAR U+00E3
ENCODING 227
SWIDTH 1000 0
DWIDTH 17 0
BBX 23 20 -3 -4
BITMAP
003E38
003E38
00E3E0
01C7C0
000000
000000
03FF80
03FF80
0000E0
0001C0
07FFC0
07FFC0
380F80
380F80
0FFB80
1FF700
000000
000000
000000
000000
ENDCHAR
STARTCHAR U+00E2
ENCODING 226
SWIDTH 1000 0
DWIDTH 17 0
BBX 23 20 -3 -4
BITMAP
003F80
003F80
00E0E0
01C1C0
000000
000000
03FF80
03FF80
0000E0
0001C0
07FFC0
07FFC0
380F80
380F80
0FFB80
1FF700
000000
000000
000000
000000
ENDCHAR
STARTCHAR U+00E1
ENCODING 225
SWIDTH 1000 0
DWIDTH 17 0
BBX 23 20 -3 -4
BITMAP
000000
000000
000F80
001F00
01F000
01F000
03FF80
03FF80
0000E0
0001C0
07FFC0
07FFC0
380F80
380F80
0FFB80
1FF700
000000
000000
000000
000000
ENDCHAR
STARTCHAR U+00E0
ENCODING 224
SWIDTH 1000 0
DWIDTH 17 0
BBX 23 20 -3 -4
BITMAP
000000
000000
003E00
007C00
0007C0
0007C0
03FF80
03FF80
0000E0
0001C0
07FFC0
07FFC0
380F80
380F80
0FFB80
1FF700
000000
000000
000000
000000
ENDCHAR
STARTCHAR U+00DF
ENCODING 223
SWIDTH 1000 0
DWIDTH 17 0
BBX 23 20 -3 -4
BITMAP
000000
000000
003F80
007F00
01C1C0
01C1C0
0E0380
0E0380
0EFE00
1DFC00
1C0700
1C0700
3B8380
3B8380
38FE00
71FC00
700000
700000
000000
000000
ENDCHAR
STARTCHAR U+00DE
ENCODING 222
SWIDTH 1000 0
DWIDTH 17 0
BBX 23 20 -3 -4
BITMAP
000000
000000
03E000
07C000
01FFC0
01FFC0
0380E0
0380E0
0380E0
0701C0
0701C0
0701C0
0FFE00
0FFE00
3E0000
7C0000
000000
000000
000000
000000
ENDCHAR
STARTCHAR U+0178
ENCODING 376
SWIDTH 1000 0
DWIDTH 17 0
BBX 23 20 -3 -4
BITMAP
00E0E0
00E0E0
000000
000000
070070
070070
038380
038380
00EE00
01DC00
007000
007000
00E000
00E000
00E000
01C000
000000
000000
000000
000000
ENDCHAR
STARTCHAR U+00DC
ENCODING 220
SWIDTH 1000 0
DWIDTH 17 0
BBX 23 20 -3 -4
BITMAP
00E0E0
00E0E0
000000
000000
070070
070070
0E00E0
0E00E0
0E00E0
1C01C0
1C01C0
1C01C0
380380
380380
0FFE00
1FFC00
000000
000000
000000
000000
ENDCHAR
STARTCHAR U+00DB
ENCODING 219
SWIDTH 1000 0
DWIDTH 17 0
BBX 23 20 -3 -4
BITMAP
000E00
000E00
003B80
007700
070070
070070
0E00E0
0E00E0
0E00E0
1C01C0
1C01C0
1C01C0
380380
380380
0FFE00
1FFC00
000000
000000
000000
000000
ENDCHAR
STARTCHAR U+00DA
ENCODING 218
SWIDTH 1000 0
DWIDTH 17 0
BBX 23 20 -3 -4
BITMAP
0003E0
0003E0
003E00
007C00
070070
070070
0E00E0
0E00E0
0E00E0
1C01C0
1C01C0
1C01C0
380380
380380
0FFE00
1FFC00
000000
000000
000000
000000
ENDCHAR
STARTCHAR U+00D9
ENCODING 217
SWIDTH 1000 0
DWIDTH 17 0
BBX 23 20 -3 -4
BITMAP
00F800
00F800
000F80
001F00
070070
070070
0E00E0
0E00E0
0E00E0
1C01C0
1C01C0
1C01C0
380380
380380
0FFE00
1FFC00
000000
000000
000000
000000
ENDCHAR
STARTCHAR U+00D8
ENCODING 216
SWIDTH 1000 0
DWIDTH 17 0
BBX 23 20 -3 -4
BITMAP
000038
000038
00FFE0
01FFC0
0701F0
0701F0
0E0EE0
0E0EE0
0E38E0
1C71C0
1DC1C0
1DC1C0
3E0380
3E0380
0FFE00
1FFC00
700000
700000
000000
000000
ENDCHAR
STARTCHAR U+0152
ENCODING 338
SWIDTH 1000 0
DWIDTH 17 0
BBX 23 20 -3 -4
BITMAP
000000
000000
00FBF8
01F7F0
071C00
071C00
0E3800
0E3800
0E3F80
1C7F00
1C7000
1C7000
38E000
38E000
0FBF80
1F7F00
000000
000000
000000
000000
ENDCHAR
STARTCHAR U+00D6
ENCODING 214
SWIDTH 1000 0
DWIDTH 17 0
BBX 23 20 -3 -4
BITMAP
00E0E0
00E0E0
000000
000000
01FFC0
01FFC0
0E00E0
0E00E0
0E00E0
1C01C0
1C01C0
1C01C0
380380
380380
0FFE00
1FFC00
000000
000000
000000
000000
ENDCHAR
STARTCHAR U+00D5
ENCODING 213
SWIDTH 1000 0
DWIDTH 17 0
BBX 23 20 -3 -4
BITMAP
00F8E0
00F8E0
038F80
071F00
01FFC0
01FFC0
0E00E0
0E00E0
0E00E0
1C01C0
1C01C0
1C01C0
380380
380380
0FFE00
1FFC00
000000
000000
000000
000000
ENDCHAR
STARTCHAR U+00D4
ENCODING 212
SWIDTH 1000 0
DWIDTH 17 0
BBX 23 20 -3 -4
BITMAP
003F80
003F80
00E0E0
01C1C0
01FFC0
01FFC0
0E00E0
0E00E0
0E00E0
1C01C0
1C01C0
1C01C0
380380
380380
0FFE00
1FFC00
000000
000000
000000
000000
ENDCHAR
STARTCHAR U+00D3
ENCODING 211
SWIDTH 1000 0
DWIDTH 17 0
BBX 23 20 -3 -4
BITMAP
000F80
000F80
00F800
01F000
01FFC0
01FFC0
0E00E0
0E00E0
0E00E0
1C01C0
1C01C0
1C01C0
380380
380380
0FFE00
1FFC00
000000
000000
000000
000000
ENDCHAR
STARTCHAR U+00D2
ENCODING 210
SWIDTH 1000 0
DWIDTH 17 0
BBX 23 20 -3 -4
BITMAP
003E00
003E00
0003E0
0007C0
01FFC0
01FFC0
0E00E0
0E00E0
0E00E0
1C01C0
1C01C0
1C01C0
380380
380380
0FFE00
1FFC00
000000
000000
000000
000000
ENDCHAR
STARTCHAR U+00D1
ENCODING 209
SWIDTH 1000 0
DWIDTH 17 0
BBX 23 20 -3 -4
BITMAP
003E38
003E38
00E3E0
01C7C0
07C070
07C070
0EE0E0
0EE0E0
0E38E0
1C71C0
1C1DC0
1C1DC0
380F80
380F80
380380
700700
000000
000000
000000
000000
ENDCHAR
STARTCHAR U+00D0
ENCODING 208
SWIDTH 1000 0
DWIDTH 17 0
BBX 23 20 -3 -4
BITMAP
000000
000000
03FF80
07FF00
01C1C0
01C1C0
0380E0
0380E0
0FF8E0
1FF1C0
0701C0
0701C0
0E0E00
0E0E00
3FF800
7FF000
000000
000000
000000
000000
ENDCHAR
STARTCHAR U+00CF
ENCODING 207
SWIDTH 1000 0
DWIDTH 17 0
BBX 23 20 -3 -4
BITMAP
00E0E0
00E0E0
000000
000000
01FFC0
01FFC0
003800
003800
003800
007000
007000
007000
00E000
00E000
0FFE00
1FFC00
000000
000000
000000
000000
ENDCHAR
STARTCHAR U+00CE
ENCODING 206
SWIDTH 1000 0
DWIDTH 17 0
BBX 23 20 -3 -4
BITMAP
003F80
003F80
00E0E0
01C1C0
01FFC0
01FFC0
003800
003800
003800
007000
007000
007000
00E000
00E000
0FFE00
1FFC00
000000
000000
000000
000000
ENDCHAR
STARTCHAR U+00CD
ENCODING 205
SWIDTH 1000 0
DWIDTH 17 0
BBX 23 20 -3 -4
BITMAP
000F80
000F80
00F800
01F000
01FFC0
01FFC0
003800
003800
003800
007000
007000
007000
00E000
00E000
0FFE00
1FFC00
000000
000000
000000
000000
ENDCHAR
STARTCHAR U+00CC
ENCODING 204
SWIDTH 1000 0
DWIDTH 17 0
BBX 23 20 -3 -4
BITMAP
003E00
003E00
0003E0
0007C0
01FFC0
01FFC0
003800
003800
003800
007000
007000
007000
00E000
00E000
0FFE00
1FFC00
000000
000000
000000
000000
ENDCHAR
STARTCHAR U+00CB
ENCODING 203
SWIDTH 1000 0
DWIDTH 17 0
BBX 23 20 -3 -4
BITMAP
00E0E0
00E0E0
000000
000000
07FFF0
07FFF0
0E0000
0E0000
0FFE00
1FFC00
1C0000
1C0000
380000
380000
3FFF80
7FFF00
000000
000000
000000
000000
ENDCHAR
STARTCHAR U+00CA
ENCODING 202
SWIDTH 1000 0
DWIDTH 17 0
BBX 23 20 -3 -4
BITMAP
003F80
003F80
00E0E0
01C1C0
07FFF0
07FFF0
0E0000
0E0000
0FF800
1FF000
1C0000
1C0000
380000
380000
3FFF80
7FFF00
000000
000000
000000
000000
ENDCHAR
STARTCHAR U+00C9
ENCODING 201
SWIDTH 1000 0
DWIDTH 17 0
BBX 23 20 -3 -4
BITMAP
0003E0
0003E0
003E00
007C00
07FFF0
07FFF0
0E0000
0E0000
0FFE00
1FFC00
1C0000
1C0000
380000
380000
3FFF80
7FFF00
000000
000000
000000
000000
ENDCHAR
STARTCHAR U+00C8
ENCODING 200
SWIDTH 1000 0
DWIDTH 17 0
BBX 23 20 -3 -4
BITMAP
00F800
00F800
000F80
001F00
07FFF0
07FFF0
0E0000
0E0000
0FFE00
1FFC00
1C0000
1C0000
380000
380000
3FFF80
7FFF00
000000
000000
000000
000000
ENDCHAR
STARTCHAR U+00C7
ENCODING 199
SWIDTH 1000 0
DWIDTH 17 0
BBX 23 20 -3 -4
BITMAP
000000
000000
003FE0
007FC0
01C070
01C070
0E0000
0E0000
0E0000
1C0000
1C0000
1C0000
0E0380
0E0380
03FE00
07FC00
007000
007000
0FE000
0FE000
ENDCHAR
STARTCHAR U+00C6
ENCODING 198
SWIDTH 1000 0
DWIDTH 17 0
BBX 23 20 -3 -4
BITMAP
000000
000000
003FF8
007FF0
01DC00
01DC00
0E3800
0E3800
0E3F80
1C7F00
1FF000
1FF000
38E000
38E000
38FF80
71FF00
000000
000000
000000
000000
ENDCHAR
STARTCHAR U+00C5
ENCODING 197
SWIDTH 1000 0
DWIDTH 17 0
BBX 23 20 -3 -4
BITMAP
003F80
003F80
00E0E0
01C1C0
007F00
007F00
00FE00
00FE00
038380
070700
1FFFC0
1FFFC0
380380
380380
380380
700700
000000
000000
000000
000000
ENDCHAR
STARTCHAR U+00C4
ENCODING 196
SWIDTH 1000 0
DWIDTH 17 0
BBX 23 20 -3 -4
BITMAP
00E0E0
00E0E0
000000
000000
001C00
001C00
00EE00
00EE00
038380
070700
1FFFC0
1FFFC0
380380
380380
380380
700700
000000
000000
000000
000000
ENDCHAR
STARTCHAR U+00C3
ENCODING 195
SWIDTH 1000 0
DWIDTH 17 0
BBX 23 20 -3 -4
BITMAP
003E38
003E38
00E3E0
01C7C0
001C00
001C00
00EE00
00EE00
038380
070700
1FFFC0
1FFFC0
380380
380380
380380
700700
000000
000000
000000
000000
ENDCHAR
STARTCHAR U+00C2
ENCODING 194
SWIDTH 1000 0
DWIDTH 17 0
BBX 23 20 -3 -4
BITMAP
003F80
003F80
00E0E0
01C1C0
001C00
001C00
00EE00
00EE00
038380
070700
1FFFC0
1FFFC0
380380
380380
380380
700700
000000
000000
000000
000000
ENDCHAR
STARTCHAR U+00C1
ENCODING 193
SWIDTH 1000 0
DWIDTH 17 0
BBX 23 20 -3 -4
BITMAP
000F80
000F80
00F800
01F000
001C00
001C00
00EE00
00EE00
038380
070700
1FFFC0
1FFFC0
380380
380380
380380
700700
000000
000000
000000
000000
ENDCHAR
STARTCHAR U+00C0
ENCODING 192
SWIDTH 1000 0
DWIDTH 17 0
BBX 23 20 -3 -4
BITMAP
003E00
003E00
0003E0
0007C0
001C00
001C00
00EE00
00EE00
038380
070700
1FFFC0
1FFFC0
380380
380380
380380
700700
000000
000000
000000
000000
ENDCHAR
STARTCHAR U+00BF
ENCODING 191
SWIDTH 1000 0
DWIDTH 17 0
BBX 23 20 -3 -4
BITMAP
000000
000000
000E00
001C00
000000
000000
003800
003800
003800
007000
07C000
07C000
380380
380380
0FFE00
1FFC00
000000
000000
000000
000000
ENDCHAR
STARTCHAR U+00BE
ENCODING 190
SWIDTH 1000 0
DWIDTH 17 0
BBX 23 20 -3 -4
BITMAP
03FE00
03FE00
000E00
001C00
01F1C0
01F1C0
003E00
003E00
0FF800
1FF000
01C700
01C700
0E3E00
0E3E00
38EE00
71DC00
07FF00
07FF00
003800
003800
ENDCHAR
STARTCHAR U+00BD
ENCODING 189
SWIDTH 1000 0
DWIDTH 17 0
BBX 23 20 -3 -4
BITMAP
000000
000000
00E000
01C000
07C1C0
07C1C0
038E00
038E00
03B800
077000
01DF00
01DF00
0EE380
0EE380
380E00
701C00
007000
007000
03FE00
03FE00
ENDCHAR
STARTCHAR U+00BC
ENCODING 188
SWIDTH 1000 0
DWIDTH 17 0
BBX 23 20 -3 -4
BITMAP
000000
000000
00E000
01C000
07C1C0
07C1C0
038E00
038E00
03B800
077000
01C700
01C700
0E3E00
0E3E00
38EE00
71DC00
07FF00
07FF00
003800
003800
ENDCHAR
STARTCHAR U+00BB
ENCODING 187
SWIDTH 1000 0
DWIDTH 17 0
BBX 23 20 -3 -4
BITMAP
000000
000000
038E00
071C00
01C700
01C700
00E380
00E380
0038E0
0071C0
01C700
01C700
0E3800
0E3800
38E000
71C000
000000
000000
000000
000000
ENDCHAR
STARTCHAR U+00BA
ENCODING 186
SWIDTH 1000 0
DWIDTH 17 0
BBX 23 20 -3 -4
BITMAP
000000
000000
00FFE0
01FFC0
070070
070070
0E00E0
0E00E0
0E00E0
1C01C0
07FF00
07FF00
000000
000000
3FFF80
7FFF00
000000
000000
000000
000000
ENDCHAR
STARTCHAR U+00B9
ENCODING 185
SWIDTH 1000 0
DWIDTH 17 0
BBX 23 20 -3 -4
BITMAP
000E00
000E00
003E00
007C00
001C00
001C00
003800
003800
00FE00
01FC00
000000
000000
000000
000000
000000
000000
000000
000000
000000
000000
ENDCHAR
STARTCHAR U+00B8
ENCODING 184
SWIDTH 1000 0
DWIDTH 17 0
BBX 23 20 -3 -4
BITMAP
000000
000000
000000
000000
000000
000000
000000
000000
000000
000000
000000
000000
000000
000000
000000
000000
007000
007000
0FE000
0FE000
ENDCHAR
STARTCHAR U+2022
ENCODING 8226
SWIDTH 1000 0
DWIDTH 17 0
BBX 23 20 -3 -4
BITMAP
000000
000000
000000
000000
000000
000000
00F800
00F800
00F800
01F000
000000
000000
000000
000000
000000
000000
000000
000000
000000
000000
ENDCHAR
STARTCHAR U+00B6
ENCODING 182
SWIDTH 1000 0
DWIDTH 17 0
BBX 23 20 -3 -4
BITMAP
000000
000000
00FFF8
01FFF0
07C770
07C770
0F8EE0
0F8EE0
03FFE0
07FFC0
001DC0
001DC0
003B80
003B80
003B80
007700
000000
000000
000000
000000
ENDCHAR
STARTCHAR U+00B5
ENCODING 181
SWIDTH 1000 0
DWIDTH 17 0
BBX 23 20 -3 -4
BITMAP
000000
000000
000000
000000
000000
000000
0380E0
0380E0
0380E0
0701C0
0701C0
0701C0
0F8F80
0F8F80
0EFB80
1DF700
1C0000
1C0000
E00000
E00000
ENDCHAR
STARTCHAR U+00B4
ENCODING 180
SWIDTH 1000 0
DWIDTH 17 0
BBX 23 20 -3 -4
BITMAP
000000
000000
0003E0
0007C0
000700
000700
003800
003800
000000
000000
000000
000000
000000
000000
000000
000000
000000
000000
000000
000000
ENDCHAR
STARTCHAR U+00B3
ENCODING 179
SWIDTH 1000 0
DWIDTH 17 0
BBX 23 20 -3 -4
BITMAP
00FFE0
00FFE0
0000E0
0001C0
001F00
001F00
000380
000380
03FE00
07FC00
000000
000000
000000
000000
000000
000000
000000
000000
000000
000000
ENDCHAR
STARTCHAR U+00B2
ENCODING 178
SWIDTH 1000 0
DWIDTH 17 0
BBX 23 20 -3 -4
BITMAP
003F80
003F80
00E0E0
01C1C0
001F00
001F00
00E000
00E000
03FF80
07FF00
000000
000000
000000
000000
000000
000000
000000
000000
000000
000000
ENDCHAR
STARTCHAR U+00AF
ENCODING 175
SWIDTH 1000 0
DWIDTH 17 0
BBX 23 20 -3 -4
BITMAP
00FFE0
00FFE0
000000
000000
000000
000000
000000
000000
000000
000000
000000
000000
000000
000000
000000
000000
000000
000000
000000
000000
ENDCHAR
STARTCHAR U+00AE
ENCODING 174
SWIDTH 1000 0
DWIDTH 17 0
BBX 23 20 -3 -4
BITMAP
000000
000000
003F80
007F00
01C1C0
01C1C0
0EFEE0
0EFEE0
0EE3E0
1DC7C0
1DFDC0
1DFDC0
3BE380
3BE380
0FBE00
1F7C00
07F000
07F000
000000
000000
ENDCHAR
STARTCHAR U+00D7
ENCODING 215
SWIDTH 1000 0
DWIDTH 17 0
BBX 23 20 -3 -4
BITMAP
000000
000000
000000
000000
01C1C0
01C1C0
00EE00
00EE00
003800
007000
01DC00
01DC00
0E0E00
0E0E00
000000
000000
000000
000000
000000
000000
ENDCHAR
STARTCHAR U+00AC
ENCODING 172
SWIDTH 1000 0
DWIDTH 17 0
BBX 23 20 -3 -4
BITMAP
000000
000000
000000
000000
000000
000000
000000
000000
000000
000000
1FFFC0
1FFFC0
000380
000380
000380
000700
000000
000000
000000
000000
ENDCHAR
STARTCHAR U+00AB
ENCODING 171
SWIDTH 1000 0
DWIDTH 17 0
BBX 23 20 -3 -4
BITMAP
000000
000000
000E38
001C70
0071C0
0071C0
038E00
038E00
0E3800
1C7000
071C00
071C00
038E00
038E00
00E380
01C700
000000
000000
000000
000000
ENDCHAR
STARTCHAR U+00AA
ENCODING 170
SWIDTH 1000 0
DWIDTH 17 0
BBX 23 20 -3 -4
BITMAP
000000
000000
00FFE0
01FFC0
000070
000070
03FFE0
03FFE0
0E03E0
1C07C0
07FDC0
07FDC0
000000
000000
3FFF80
7FFF00
000000
000000
000000
000000
ENDCHAR
STARTCHAR U+00A9
ENCODING 169
SWIDTH 1000 0
DWIDTH 17 0
BBX 23 20 -3 -4
BITMAP
000000
000000
003F80
007F00
01C1C0
01C1C0
0E3EE0
0E3EE0
0EE0E0
1DC1C0
1DC1C0
1DC1C0
38FB80
38FB80
0E0E00
1C1C00
07F000
07F000
000000
000000
ENDCHAR
STARTCHAR U+00A4
ENCODING 164
SWIDTH 1000 0
DWIDTH 17 0
BBX 23 20 -3 -4
BITMAP
000000
000000
000000
000000
070070
070070
03FF80
03FF80
038380
070700
07FF00
07FF00
380380
380380
000000
000000
000000
000000
000000
000000
ENDCHAR
STARTCHAR U+00A7
ENCODING 167
SWIDTH 1000 0
DWIDTH 17 0
BBX 23 20 -3 -4
BITMAP
000000
000000
003FE0
007FC0
01C000
01C000
00FE00
00FE00
038380
070700
01FC00
01FC00
000E00
000E00
0FF800
1FF000
000000
000000
000000
000000
ENDCHAR
STARTCHAR U+00A6
ENCODING 166
SWIDTH 1000 0
DWIDTH 17 0
BBX 23 20 -3 -4
BITMAP
000000
000000
000E00
001C00
001C00
001C00
003800
003800
000000
000000
007000
007000
00E000
00E000
00E000
01C000
000000
000000
000000
000000
ENDCHAR
STARTCHAR U+00A5
ENCODING 165
SWIDTH 1000 0
DWIDTH 17 0
BBX 23 20 -3 -4
BITMAP
000000
000000
038038
070070
01C1C0
01C1C0
00EE00
00EE00
003800
007000
1FFFC0
1FFFC0
00E000
00E000
00E000
01C000
000000
000000
000000
000000
ENDCHAR
STARTCHAR U+00A8
ENCODING 168
SWIDTH 1000 0
DWIDTH 17 0
BBX 23 20 -3 -4
BITMAP
00E0E0
00E0E0
000000
000000
000000
000000
000000
000000
000000
000000
000000
000000
000000
000000
000000
000000
000000
000000
000000
000000
ENDCHAR
STARTCHAR U+00A2
ENCODING 162
SWIDTH 1000 0
DWIDTH 17 0
BBX 23 20 -3 -4
BITMAP
000000
000000
000000
000000
001C00
001C00
03FF80
03FF80
0E38E0
1C71C0
1C7000
1C7000
38E380
38E380
0FFE00
1FFC00
01C000
01C000
000000
000000
ENDCHAR
STARTCHAR U+00A1
ENCODING 161
SWIDTH 1000 0
DWIDTH 17 0
BBX 23 20 -3 -4
BITMAP
000000
000000
000E00
001C00
000000
000000
003800
003800
003800
007000
007000
007000
00E000
00E000
00E000
01C000
000000
000000
000000
000000
ENDCHAR
STARTCHAR U+201F
ENCODING 8223
SWIDTH 1000 0
DWIDTH 17 0
BBX 23 20 -3 -4
BITMAP
000000
000000
00FBE0
01F7C0
01C700
01C700
00E380
00E380
000000
000000
000000
000000
000000
000000
000000
000000
000000
000000
000000
000000
ENDCHAR
STARTCHAR U+201E
ENCODING 8222
SWIDTH 1000 0
DWIDTH 17 0
BBX 23 20 -3 -4
BITMAP
000000
000000
000000
000000
000000
000000
000000
000000
000000
000000
000000
000000
000000
000000
0E3800
1C7000
1C7000
1C7000
000000
000000
ENDCHAR
STARTCHAR U+201D
ENCODING 8221
SWIDTH 1000 0
DWIDTH 17 0
BBX 23 20 -3 -4
BITMAP
000000
000000
00F8F8
01F1F0
007070
007070
038380
038380
000000
000000
000000
000000
000000
000000
000000
000000
000000
000000
000000
000000
ENDCHAR
STARTCHAR U+201C
ENCODING 8220
SWIDTH 1000 0
DWIDTH 17 0
BBX 23 20 -3 -4
BITMAP
000000
000000
003838
007070
01C1C0
01C1C0
03E3E0
03E3E0
000000
000000
000000
000000
000000
000000
000000
000000
000000
000000
000000
000000
ENDCHAR
STARTCHAR U+201B
ENCODING 8219
SWIDTH 1000 0
DWIDTH 17 0
BBX 23 20 -3 -4
BITMAP
000000
000000
000E00
001C00
001C00
001C00
003800
003800
000000
000000
000000
000000
000000
000000
000000
000000
000000
000000
000000
000000
ENDCHAR
STARTCHAR U+201A
ENCODING 8218
SWIDTH 1000 0
DWIDTH 17 0
BBX 23 20 -3 -4
BITMAP
000000
000000
000000
000000
000000
000000
000000
000000
000000
000000
007000
007000
00E000
00E000
00E000
01C000
000000
000000
000000
000000
ENDCHAR
STARTCHAR U+2019
ENCODING 8217
SWIDTH 1000 0
DWIDTH 17 0
BBX 23 20 -3 -4
BITMAP
000000
000000
00F800
01F000
007000
007000
038000
038000
000000
000000
000000
000000
000000
000000
000000
000000
000000
000000
000000
000000
ENDCHAR
STARTCHAR U+2018
ENCODING 8216
SWIDTH 1000 0
DWIDTH 17 0
BBX 23 20 -3 -4
BITMAP
000000
000000
000038
000070
0001C0
0001C0
0003E0
0003E0
000000
000000
000000
000000
000000
000000
000000
000000
000000
000000
000000
000000
ENDCHAR
STARTCHAR U+2017
ENCODING 8215
SWIDTH 1000 0
DWIDTH 17 0
BBX 23 20 -3 -4
BITMAP
000000
000000
000000
000000
000000
000000
000000
000000
000000
000000
000000
000000
000000
000000
3FFF80
7FFF00
000000
000000
FFFE00
FFFE00
ENDCHAR
STARTCHAR U+2016
ENCODING 8214
SWIDTH 1000 0
DWIDTH 17 0
BBX 23 20 -3 -4
BITMAP
000000
000000
000EE0
001DC0
001DC0
001DC0
003B80
003B80
003B80
007700
007700
007700
00EE00
00EE00
00EE00
01DC00
000000
000000
000000
000000
ENDCHAR
STARTCHAR U+2015
ENCODING 8213
SWIDTH 1000 0
DWIDTH 17 0
BBX 23 20 -3 -4
BITMAP
000000
000000
000000
000000
000000
000000
000000
000000
0FFFF8
1FFFF0
000000
000000
000000
000000
000000
000000
000000
000000
000000
000000
ENDCHAR
STARTCHAR U+2014
ENCODING 8212
SWIDTH 1000 0
DWIDTH 17 0
BBX 23 20 -3 -4
BITMAP
000000
000000
000000
000000
000000
000000
000000
000000
0FFFE0
1FFFC0
000000
000000
000000
000000
000000
000000
000000
000000
000000
000000
ENDCHAR
STARTCHAR U+2013
ENCODING 8211
SWIDTH 1000 0
DWIDTH 17 0
BBX 23 20 -3 -4
BITMAP
000000
000000
000000
000000
000000
000000
000000
000000
00FF80
01FF00
000000
000000
000000
000000
000000
000000
000000
000000
000000
000000
ENDCHAR
STARTCHAR U+2012
ENCODING 8210
SWIDTH 1000 0
DWIDTH 17 0
BBX 23 20 -3 -4
BITMAP
000000
000000
000000
000000
000000
000000
000000
000000
03FF80
07FF00
000000
000000
000000
000000
000000
000000
000000
000000
000000
000000
ENDCHAR
STARTCHAR U+2011
ENCODING 8209
SWIDTH 1000 0
DWIDTH 17 0
BBX 23 20 -3 -4
BITMAP
000000
000000
000000
000000
000000
000000
000000
000000
00FE00
01FC00
000000
000000
000000
000000
000000
000000
000000
000000
000000
000000
ENDCHAR
STARTCHAR U+2010
ENCODING 8208
SWIDTH 1000 0
DWIDTH 17 0
BBX 23 20 -3 -4
BITMAP
000000
000000
000000
000000
000000
000000
000000
000000
00FE00
01FC00
000000
000000
000000
000000
000000
000000
000000
000000
000000
000000
ENDCHAR
STARTCHAR U+007F
ENCODING 127
SWIDTH 1000 0
DWIDTH 17 0
BBX 23 20 -3 -4
BITMAP
000000
000000
03F800
07F000
071C00
071C00
0E3800
0E3800
0E3800
1C7000
1FFC00
1FFC00
038000
038000
038000
070000
070000
070000
0E0000
0E0000
ENDCHAR
STARTCHAR U+007E
ENCODING 126
SWIDTH 1000 0
DWIDTH 17 0
BBX 23 20 -3 -4
BITMAP
000000
000000
00F838
01F070
071C70
071C70
0E0F80
0E0F80
000000
000000
000000
000000
000000
000000
000000
000000
000000
000000
000000
000000
ENDCHAR
STARTCHAR U+007D
ENCODING 125
SWIDTH 1000 0
DWIDTH 17 0
BBX 23 20 -3 -4
BITMAP
000000
000000
03F800
07F000
001C00
001C00
00E000
00E000
003E00
007C00
01C000
01C000
00E000
00E000
3F8000
7F0000
000000
000000
000000
000000
ENDCHAR
STARTCHAR U+007C
ENCODING 124
SWIDTH 1000 0
DWIDTH 17 0
BBX 23 20 -3 -4
BITMAP
000000
000000
000E00
001C00
001C00
001C00
003800
003800
003800
007000
007000
007000
00E000
00E000
00E000
01C000
000000
000000
000000
000000
ENDCHAR
STARTCHAR U+007B
ENCODING 123
SWIDTH 1000 0
DWIDTH 17 0
BBX 23 20 -3 -4
BITMAP
000000
000000
0003F8
0007F0
001C00
001C00
000E00
000E00
00F800
01F000
001C00
001C00
00E000
00E000
003F80
007F00
000000
000000
000000
000000
ENDCHAR
STARTCHAR U+007A
ENCODING 122
SWIDTH 1000 0
DWIDTH 17 0
BBX 23 20 -3 -4
BITMAP
000000
000000
000000
000000
000000
000000
0FFFE0
0FFFE0
000380
000700
007C00
007C00
038000
038000
3FFF80
7FFF00
000000
000000
000000
000000
ENDCHAR
STARTCHAR U+0079
ENCODING 121
SWIDTH 1000 0
DWIDTH 17 0
BBX 23 20 -3 -4
BITMAP
000000
000000
000000
000000
000000
000000
0E0380
0E0380
0E0380
1C0700
1C1F00
1C1F00
0FEE00
0FEE00
000E00
001C00
701C00
701C00
3FE000
3FE000
ENDCHAR
STARTCHAR U+0078
ENCODING 120
SWIDTH 1000 0
DWIDTH 17 0
BBX 23 20 -3 -4
BITMAP
000000
000000
000000
000000
000000
000000
0E0380
0E0380
038E00
071C00
01F000
01F000
0E3800
0E3800
380E00
701C00
000000
000000
000000
000000
ENDCHAR
STARTCHAR U+0077
ENCODING 119
SWIDTH 1000 0
DWIDTH 17 0
BBX 23 20 -3 -4
BITMAP
000000
000000
000000
000000
000000
000000
0E00E0
0E00E0
0E00E0
1C01C0
1C71C0
1C71C0
3BBB80
3BBB80
0E0E00
1C1C00
000000
000000
000000
000000
ENDCHAR
STARTCHAR U+0076
ENCODING 118
SWIDTH 1000 0
DWIDTH 17 0
BBX 23 20 -3 -4
BITMAP
000000
000000
000000
000000
000000
000000
0E00E0
0E00E0
0E00E0
1C01C0
070700
070700
03B800
03B800
00E000
01C000
000000
000000
000000
000000
ENDCHAR
STARTCHAR U+0075
ENCODING 117
SWIDTH 1000 0
DWIDTH 17 0
BBX 23 20 -3 -4
BITMAP
000000
000000
000000
000000
000000
000000
0E0380
0E0380
0E0380
1C0700
1C0700
1C0700
380E00
380E00
0FFB80
1FF700
000000
000000
000000
000000
ENDCHAR
STARTCHAR U+0074
ENCODING 116
SWIDTH 1000 0
DWIDTH 17 0
BBX 23 20 -3 -4
BITMAP
000000
000000
003800
007000
007000
007000
0FFE00
0FFE00
00E000
01C000
01C000
01C000
038E00
038E00
00F800
01F000
000000
000000
000000
000000
ENDCHAR
STARTCHAR U+0073
ENCODING 115
SWIDTH 1000 0
DWIDTH 17 0
BBX 23 20 -3 -4
BITMAP
000000
000000
000000
000000
000000
000000
03FF80
03FF80
0E0000
1C0000
07FF00
07FF00
000380
000380
3FFE00
7FFC00
000000
000000
000000
000000
ENDCHAR
STARTCHAR U+0072
ENCODING 114
SWIDTH 1000 0
DWIDTH 17 0
BBX 23 20 -3 -4
BITMAP
000000
000000
000000
000000
000000
000000
0E3F80
0E3F80
03E0E0
07C1C0
070000
070000
0E0000
0E0000
0E0000
1C0000
000000
000000
000000
000000
ENDCHAR
STARTCHAR U+0071
ENCODING 113
SWIDTH 1000 0
DWIDTH 17 0
BBX 23 20 -3 -4
BITMAP
000000
000000
000000
000000
000000
000000
03FEE0
03FEE0
0E03E0
1C07C0
1C07C0
1C07C0
0FFB80
0FFB80
000380
000700
000700
000700
000E00
000E00
ENDCHAR
STARTCHAR U+0070
ENCODING 112
SWIDTH 1000 0
DWIDTH 17 0
BBX 23 20 -3 -4
BITMAP
000000
000000
000000
000000
000000
000000
0EFF80
0EFF80
0F80E0
1F01C0
1F01C0
1F01C0
3BFE00
3BFE00
380000
700000
700000
700000
E00000
E00000
ENDCHAR
STARTCHAR U+006f
ENCODING 111
SWIDTH 1000 0
DWIDTH 17 0
BBX 23 20 -3 -4
BITMAP
000000
000000
000000
000000
000000
000000
03FF80
03FF80
0E00E0
1C01C0
1C01C0
1C01C0
380380
380380
0FFE00
1FFC00
000000
000000
000000
000000
ENDCHAR
STARTCHAR U+006e
ENCODING 110
SWIDTH 1000 0
DWIDTH 17 0
BBX 23 20 -3 -4
BITMAP
000000
000000
000000
000000
000000
000000
0EFF80
0EFF80
0F80E0
1F01C0
1C01C0
1C01C0
380380
380380
380380
700700
000000
000000
000000
000000
ENDCHAR
STARTCHAR U+006d
ENCODING 109
SWIDTH 1000 0
DWIDTH 17 0
BBX 23 20 -3 -4
BITMAP
000000
000000
000000
000000
000000
000000
0F8380
0F8380
0EEEE0
1DDDC0
1C71C0
1C71C0
38E380
38E380
380380
700700
000000
000000
000000
000000
ENDCHAR
STARTCHAR U+006c
ENCODING 108
SWIDTH 1000 0
DWIDTH 17 0
BBX 23 20 -3 -4
BITMAP
000000
000000
003E00
007C00
001C00
001C00
003800
003800
003800
007000
007000
007000
00E000
00E000
03F800
07F000
000000
000000
000000
000000
ENDCHAR
STARTCHAR U+006b
ENCODING 107
SWIDTH 1000 0
DWIDTH 17 0
BBX 23 20 -3 -4
BITMAP
000000
000000
038000
070000
070000
070000
0E0E00
0E0E00
0E3800
1C7000
1FC000
1FC000
383800
383800
380380
700700
000000
000000
000000
000000
ENDCHAR
STARTCHAR U+006a
ENCODING 106
SWIDTH 1000 0
DWIDTH 17 0
BBX 23 20 -3 -4
BITMAP
000000
000000
0000E0
0001C0
000000
000000
000380
000380
000380
000700
000700
000700
000E00
000E00
380E00
701C00
701C00
701C00
3FE000
3FE000
ENDCHAR
STARTCHAR U+0069
ENCODING 105
SWIDTH 1000 0
DWIDTH 17 0
BBX 23 20 -3 -4
BITMAP
000000
000000
000E00
001C00
000000
000000
00F800
00F800
003800
007000
007000
007000
00E000
00E000
0FFE00
1FFC00
000000
000000
000000
000000
ENDCHAR
STARTCHAR U+0068
ENCODING 104
SWIDTH 1000 0
DWIDTH 17 0
BBX 23 20 -3 -4
BITMAP
000000
000000
038000
070000
070000
070000
0EFF80
0EFF80
0F80E0
1F01C0
1C01C0
1C01C0
380380
380380
380380
700700
000000
000000
000000
000000
ENDCHAR
STARTCHAR U+0067
ENCODING 103
SWIDTH 1000 0
DWIDTH 17 0
BBX 23 20 -3 -4
BITMAP
000000
000000
000000
000000
000000
000000
03FEE0
03FEE0
0E0380
1C0700
07FC00
07FC00
380000
380000
0FFE00
1FFC00
700700
700700
3FF800
3FF800
ENDCHAR
STARTCHAR U+0066
ENCODING 102
SWIDTH 1000 0
DWIDTH 17 0
BBX 23 20 -3 -4
BITMAP
000000
000000
000FE0
001FC0
007070
007070
00E000
00E000
0FFE00
1FFC00
01C000
01C000
038000
038000
038000
070000
000000
000000
000000
000000
ENDCHAR
STARTCHAR U+0065
ENCODING 101
SWIDTH 1000 0
DWIDTH 17 0
BBX 23 20 -3 -4
BITMAP
000000
000000
000000
000000
000000
000000
03FF80
03FF80
0E00E0
1C01C0
1FFFC0
1FFFC0
380000
380000
0FFE00
1FFC00
000000
000000
000000
000000
ENDCHAR
STARTCHAR U+0064
ENCODING 100
SWIDTH 1000 0
DWIDTH 17 0
BBX 23 20 -3 -4
BITMAP
000000
000000
000038
000070
000070
000070
03FEE0
03FEE0
0E03E0
1C07C0
1C01C0
1C01C0
380F80
380F80
0FFB80
1FF700
000000
000000
000000
000000
ENDCHAR
STARTCHAR U+0063
ENCODING 99
SWIDTH 1000 0
DWIDTH 17 0
BBX 23 20 -3 -4
BITMAP
000000
000000
000000
000000
000000
000000
03FF80
03FF80
0E00E0
1C01C0
1C0000
1C0000
380000
380000
0FFF80
1FFF00
000000
000000
000000
000000
ENDCHAR
STARTCHAR U+0062
ENCODING 98
SWIDTH 1000 0
DWIDTH 17 0
BBX 23 20 -3 -4
BITMAP
000000
000000
038000
070000
070000
070000
0EFF80
0EFF80
0F80E0
1F01C0
1C01C0
1C01C0
3E0380
3E0380
3BFE00
77FC00
000000
000000
000000
000000
ENDCHAR
STARTCHAR U+0061
ENCODING 97
SWIDTH 1000 0
DWIDTH 17 0
BBX 23 20 -3 -4
BITMAP
000000
000000
000000
000000
000000
000000
03FF80
03FF80
0000E0
0001C0
07FFC0
07FFC0
380F80
380F80
0FFB80
1FF700
000000
000000
000000
000000
ENDCHAR
STARTCHAR U+0060
ENCODING 96
SWIDTH 1000 0
DWIDTH 17 0
BBX 23 20 -3 -4
BITMAP
000000
000000
003E00
007C00
001C00
001C00
000E00
000E00
000000
000000
000000
000000
000000
000000
000000
000000
000000
000000
000000
000000
ENDCHAR
STARTCHAR U+005F
ENCODING 95
SWIDTH 1000 0
DWIDTH 17 0
BBX 23 20 -3 -4
BITMAP
000000
000000
000000
000000
000000
000000
000000
000000
000000
000000
000000
000000
000000
000000
3FFF80
7FFF00
000000
000000
000000
000000
ENDCHAR
STARTCHAR U+005E
ENCODING 94
SWIDTH 1000 0
DWIDTH 17 0
BBX 23 20 -3 -4
BITMAP
000000
000000
000E00
001C00
007700
007700
038380
038380
0E00E0
1C01C0
000000
000000
000000
000000
000000
000000
000000
000000
000000
000000
ENDCHAR
STARTCHAR U+005D
ENCODING 93
SWIDTH 1000 0
DWIDTH 17 0
BBX 23 20 -3 -4
BITMAP
000000
000000
00FF80
01FF00
000700
000700
000E00
000E00
000E00
001C00
001C00
001C00
003800
003800
0FF800
1FF000
000000
000000
000000
000000
ENDCHAR
STARTCHAR U+005C
ENCODING 92
SWIDTH 1000 0
DWIDTH 17 0
BBX 23 20 -3 -4
BITMAP
000000
000000
038000
070000
01C000
01C000
00E000
00E000
003800
007000
001C00
001C00
000E00
000E00
000380
000700
000000
000000
000000
000000
ENDCHAR
STARTCHAR U+005B
ENCODING 91
SWIDTH 1000 0
DWIDTH 17 0
BBX 23 20 -3 -4
BITMAP
000000
000000
003FE0
007FC0
007000
007000
00E000
00E000
00E000
01C000
01C000
01C000
038000
038000
03FE00
07FC00
000000
000000
000000
000000
ENDCHAR
STARTCHAR U+005A
ENCODING 90
SWIDTH 1000 0
DWIDTH 17 0
BBX 23 20 -3 -4
BITMAP
000000
000000
03FFF8
07FFF0
0001C0
0001C0
000E00
000E00
003800
007000
01C000
01C000
0E0000
0E0000
3FFF80
7FFF00
000000
000000
000000
000000
ENDCHAR
STARTCHAR U+0059
ENCODING 89
SWIDTH 1000 0
DWIDTH 17 0
BBX 23 20 -3 -4
BITMAP
000000
000000
038038
070070
01C1C0
01C1C0
00EE00
00EE00
003800
007000
007000
007000
00E000
00E000
00E000
01C000
000000
000000
000000
000000
ENDCHAR
STARTCHAR U+0058
ENCODING 88
SWIDTH 1000 0
DWIDTH 17 0
BBX 23 20 -3 -4
BITMAP
000000
000000
038038
070070
01C1C0
01C1C0
00EE00
00EE00
003800
007000
01DC00
01DC00
0E0E00
0E0E00
380380
700700
000000
000000
000000
000000
ENDCHAR
STARTCHAR U+0057
ENCODING 87
SWIDTH 1000 0
DWIDTH 17 0
BBX 23 20 -3 -4
BITMAP
000000
000000
038038
070070
070070
070070
0E00E0
0E00E0
0E38E0
1C71C0
1C71C0
1C71C0
3BBB80
3BBB80
0E0E00
1C1C00
000000
000000
000000
000000
ENDCHAR
STARTCHAR U+0056
ENCODING 86
SWIDTH 1000 0
DWIDTH 17 0
BBX 23 20 -3 -4
BITMAP
000000
000000
038038
070070
070070
070070
038380
038380
038380
070700
01DC00
01DC00
03B800
03B800
00E000
01C000
000000
000000
000000
000000
ENDCHAR
STARTCHAR U+0055
ENCODING 85
SWIDTH 1000 0
DWIDTH 17 0
BBX 23 20 -3 -4
BITMAP
000000
000000
038038
070070
070070
070070
0E00E0
0E00E0
0E00E0
1C01C0
1C01C0
1C01C0
380380
380380
0FFE00
1FFC00
000000
000000
000000
000000
ENDCHAR
STARTCHAR U+0054
ENCODING 84
SWIDTH 1000 0
DWIDTH 17 0
BBX 23 20 -3 -4
BITMAP
000000
000000
03FFF8
07FFF0
001C00
001C00
003800
003800
003800
007000
007000
007000
00E000
00E000
00E000
01C000
000000
000000
000000
000000
ENDCHAR
STARTCHAR U+0053
ENCODING 83
SWIDTH 1000 0
DWIDTH 17 0
BBX 23 20 -3 -4
BITMAP
000000
000000
00FFE0
01FFC0
070070
070070
0E0000
0E0000
03FF80
07FF00
0001C0
0001C0
380380
380380
0FFE00
1FFC00
000000
000000
000000
000000
ENDCHAR
STARTCHAR U+0052
ENCODING 82
SWIDTH 1000 0
DWIDTH 17 0
BBX 23 20 -3 -4
BITMAP
000000
000000
03FFE0
07FFC0
070070
070070
0E00E0
0E00E0
0FFF80
1FFF00
1C1C00
1C1C00
380E00
380E00
380380
700700
000000
000000
000000
000000
ENDCHAR
STARTCHAR U+0051
ENCODING 81
SWIDTH 1000 0
DWIDTH 17 0
BBX 23 20 -3 -4
BITMAP
000000
000000
00FFE0
01FFC0
070070
070070
0E00E0
0E00E0
0E00E0
1C01C0
1C1DC0
1C1DC0
380E00
380E00
0FFB80
1FF700
000000
000000
000000
000000
ENDCHAR
STARTCHAR U+0050
ENCODING 80
SWIDTH 1000 0
DWIDTH 17 0
BBX 23 20 -3 -4
BITMAP
000000
000000
03FFE0
07FFC0
070070
070070
0E00E0
0E00E0
0FFF80
1FFF00
1C0000
1C0000
380000
380000
380000
700000
000000
000000
000000
000000
ENDCHAR
STARTCHAR U+004F
ENCODING 79
SWIDTH 1000 0
DWIDTH 17 0
BBX 23 20 -3 -4
BITMAP
000000
000000
00FFE0
01FFC0
070070
070070
0E00E0
0E00E0
0E00E0
1C01C0
1C01C0
1C01C0
380380
380380
0FFE00
1FFC00
000000
000000
000000
000000
ENDCHAR
STARTCHAR U+004E
ENCODING 78
SWIDTH 1000 0
DWIDTH 17 0
BBX 23 20 -3 -4
BITMAP
000000
000000
038038
070070
07C070
07C070
0EE0E0
0EE0E0
0E38E0
1C71C0
1C1DC0
1C1DC0
380F80
380F80
380380
700700
000000
000000
000000
000000
ENDCHAR
STARTCHAR U+004D
ENCODING 77
SWIDTH 1000 0
DWIDTH 17 0
BBX 23 20 -3 -4
BITMAP
000000
000000
038038
070070
07C1F0
07C1F0
0EEEE0
0EEEE0
0E38E0
1C71C0
1C01C0
1C01C0
380380
380380
380380
700700
000000
000000
000000
000000
ENDCHAR
STARTCHAR U+004C
ENCODING 76
SWIDTH 1000 0
DWIDTH 17 0
BBX 23 20 -3 -4
BITMAP
000000
000000
038000
070000
070000
070000
0E0000
0E0000
0E0000
1C0000
1C0000
1C0000
380000
380000
3FFF80
7FFF00
000000
000000
000000
000000
ENDCHAR
STARTCHAR U+004B
ENCODING 75
SWIDTH 1000 0
DWIDTH 17 0
BBX 23 20 -3 -4
BITMAP
000000
000000
038038
070070
0707C0
0707C0
0EF800
0EF800
0F8000
1F0000
1DF000
1DF000
383E00
383E00
380380
700700
000000
000000
000000
000000
ENDCHAR
STARTCHAR U+004A
ENCODING 74
SWIDTH 1000 0
DWIDTH 17 0
BBX 23 20 -3 -4
BITMAP
000000
000000
0003F8
0007F0
0001C0
0001C0
000380
000380
000380
000700
000700
000700
380E00
380E00
0FF800
1FF000
000000
000000
000000
000000
ENDCHAR
STARTCHAR U+0049
ENCODING 73
SWIDTH 1000 0
DWIDTH 17 0
BBX 23 20 -3 -4
BITMAP
000000
000000
00FFE0
01FFC0
001C00
001C00
003800
003800
003800
007000
007000
007000
00E000
00E000
0FFE00
1FFC00
000000
000000
000000
000000
ENDCHAR
STARTCHAR U+0048
ENCODING 72
SWIDTH 1000 0
DWIDTH 17 0
BBX 23 20 -3 -4
BITMAP
000000
000000
038038
070070
070070
070070
0E00E0
0E00E0
0FFFE0
1FFFC0
1C01C0
1C01C0
380380
380380
380380
700700
000000
000000
000000
000000
ENDCHAR
STARTCHAR U+0047
ENCODING 71
SWIDTH 1000 0
DWIDTH 17 0
BBX 23 20 -3 -4
BITMAP
000000
000000
003FE0
007FC0
01C070
01C070
0E0000
0E0000
0E0000
1C0000
1C1FC0
1C1FC0
0E0380
0E0380
03FE00
07FC00
000000
000000
000000
000000
ENDCHAR
STARTCHAR U+0046
ENCODING 70
SWIDTH 1000 0
DWIDTH 17 0
BBX 23 20 -3 -4
BITMAP
000000
000000
03FFF8
07FFF0
070000
070000
0E0000
0E0000
0FFE00
1FFC00
1C0000
1C0000
380000
380000
380000
700000
000000
000000
000000
000000
ENDCHAR
STARTCHAR U+0045
ENCODING 69
SWIDTH 1000 0
DWIDTH 17 0
BBX 23 20 -3 -4
BITMAP
000000
000000
03FFF8
07FFF0
070000
070000
0E0000
0E0000
0FFE00
1FFC00
1C0000
1C0000
380000
380000
3FFF80
7FFF00
000000
000000
000000
000000
ENDCHAR
STARTCHAR U+0044
ENCODING 68
SWIDTH 1000 0
DWIDTH 17 0
BBX 23 20 -3 -4
BITMAP
000000
000000
03FF80
07FF00
01C1C0
01C1C0
0380E0
0380E0
0380E0
0701C0
0701C0
0701C0
0E0E00
0E0E00
3FF800
7FF000
000000
000000
000000
000000
ENDCHAR
STARTCHAR U+0043
ENCODING 67
SWIDTH 1000 0
DWIDTH 17 0
BBX 23 20 -3 -4
BITMAP
000000
000000
003FE0
007FC0
01C070
01C070
0E0000
0E0000
0E0000
1C0000
1C0000
1C0000
0E0380
0E0380
03FE00
07FC00
000000
000000
000000
000000
ENDCHAR
STARTCHAR U+0042
ENCODING 66
SWIDTH 1000 0
DWIDTH 17 0
BBX 23 20 -3 -4
BITMAP
000000
000000
03FFE0
07FFC0
01C070
01C070
0380E0
0380E0
03FF80
07FF00
0701C0
0701C0
0E0380
0E0380
3FFE00
7FFC00
000000
000000
000000
000000
ENDCHAR
STARTCHAR U+0041
ENCODING 65
SWIDTH 1000 0
DWIDTH 17 0
BBX 23 20 -3 -4
BITMAP
000000
000000
000E00
001C00
007700
007700
038380
038380
0E00E0
1C01C0
1FFFC0
1FFFC0
380380
380380
380380
700700
000000
000000
000000
000000
ENDCHAR
STARTCHAR U+0040
ENCODING 64
SWIDTH 1000 0
DWIDTH 17 0
BBX 23 20 -3 -4
BITMAP
000000
000000
00FFE0
01FFC0
070070
070070
0E3FE0
0E3FE0
0EE3E0
1DC7C0
1C7DC0
1C7DC0
380000
380000
0FFE00
1FFC00
000000
000000
000000
000000
ENDCHAR
STARTCHAR U+003F
ENCODING 63
SWIDTH 1000 0
DWIDTH 17 0
BBX 23 20 -3 -4
BITMAP
000000
000000
00FFE0
01FFC0
070070
070070
000F80
000F80
003800
007000
007000
007000
000000
000000
00E000
01C000
000000
000000
000000
000000
ENDCHAR
STARTCHAR U+003E
ENCODING 62
SWIDTH 1000 0
DWIDTH 17 0
BBX 23 20 -3 -4
BITMAP
000000
000000
038000
070000
007000
007000
000E00
000E00
0000E0
0001C0
001C00
001C00
038000
038000
380000
700000
000000
000000
000000
000000
ENDCHAR
STARTCHAR U+003D
ENCODING 61
SWIDTH 1000 0
DWIDTH 17 0
BBX 23 20 -3 -4
BITMAP
000000
000000
000000
000000
000000
000000
0FFFE0
0FFFE0
000000
000000
1FFFC0
1FFFC0
000000
000000
000000
000000
000000
000000
000000
000000
ENDCHAR
STARTCHAR U+003C
ENCODING 60
SWIDTH 1000 0
DWIDTH 17 0
BBX 23 20 -3 -4
BITMAP
000000
000000
000038
000070
000700
000700
00E000
00E000
0E0000
1C0000
01C000
01C000
003800
003800
000380
000700
000000
000000
000000
000000
ENDCHAR
STARTCHAR U+003B
ENCODING 59
SWIDTH 1000 0
DWIDTH 17 0
BBX 23 20 -3 -4
BITMAP
000000
000000
000000
000000
007C00
007C00
00F800
00F800
000000
000000
000000
000000
03E000
03E000
038000
070000
1C0000
1C0000
000000
000000
ENDCHAR
STARTCHAR U+003A
ENCODING 58
SWIDTH 1000 0
DWIDTH 17 0
BBX 23 20 -3 -4
BITMAP
000000
000000
000000
000000
007C00
007C00
00F800
00F800
000000
000000
000000
000000
03E000
03E000
03E000
07C000
000000
000000
000000
000000
ENDCHAR
STARTCHAR U+0039
ENCODING 57
SWIDTH 1000 0
DWIDTH 17 0
BBX 23 20 -3 -4
BITMAP
000000
000000
00FFE0
01FFC0
070070
070070
0E03E0
0E03E0
03FEE0
07FDC0
0001C0
0001C0
000E00
000E00
0FF800
1FF000
000000
000000
000000
000000
ENDCHAR
STARTCHAR U+0038
ENCODING 56
SWIDTH 1000 0
DWIDTH 17 0
BBX 23 20 -3 -4
BITMAP
000000
000000
00FFE0
01FFC0
070070
070070
0E00E0
0E00E0
03FF80
07FF00
1C01C0
1C01C0
380380
380380
0FFE00
1FFC00
000000
000000
000000
000000
ENDCHAR
STARTCHAR U+0037
ENCODING 55
SWIDTH 1000 0
DWIDTH 17 0
BBX 23 20 -3 -4
BITMAP
000000
000000
03FFF8
07FFF0
000070
000070
000380
000380
000E00
001C00
007000
007000
038000
038000
038000
070000
000000
000000
000000
000000
ENDCHAR
STARTCHAR U+0036
ENCODING 54
SWIDTH 1000 0
DWIDTH 17 0
BBX 23 20 -3 -4
BITMAP
000000
000000
003FE0
007FC0
01C000
01C000
0E0000
0E0000
0EFF80
1DFF00
1F01C0
1F01C0
380380
380380
0FFE00
1FFC00
000000
000000
000000
000000
ENDCHAR
STARTCHAR U+0035
ENCODING 53
SWIDTH 1000 0
DWIDTH 17 0
BBX 23 20 -3 -4
BITMAP
000000
000000
03FFF8
07FFF0
070000
070000
0EFF80
0EFF80
0F80E0
1F01C0
0001C0
0001C0
380380
380380
0FFE00
1FFC00
000000
000000
000000
000000
ENDCHAR
STARTCHAR U+0034
ENCODING 52
SWIDTH 1000 0
DWIDTH 17 0
BBX 23 20 -3 -4
BITMAP
000000
000000
000380
000700
001F00
001F00
00EE00
00EE00
038E00
071C00
1FFFC0
1FFFC0
003800
003800
003800
007000
000000
000000
000000
000000
ENDCHAR
STARTCHAR U+0033
ENCODING 51
SWIDTH 1000 0
DWIDTH 17 0
BBX 23 20 -3 -4
BITMAP
000000
000000
03FFF8
07FFF0
0001C0
0001C0
000E00
000E00
003F80
007F00
0001C0
0001C0
380380
380380
0FFE00
1FFC00
000000
000000
000000
000000
ENDCHAR
STARTCHAR U+0032
ENCODING 50
SWIDTH 1000 0
DWIDTH 17 0
BBX 23 20 -3 -4
BITMAP
000000
000000
00FFE0
01FFC0
070070
070070
0000E0
0000E0
003F80
007F00
07C000
07C000
380000
380000
3FFF80
7FFF00
000000
000000
000000
000000
ENDCHAR
STARTCHAR U+0031
ENCODING 49
SWIDTH 1000 0
DWIDTH 17 0
BBX 23 20 -3 -4
BITMAP
000000
000000
000E00
001C00
007C00
007C00
03B800
03B800
003800
007000
007000
007000
00E000
00E000
0FFE00
1FFC00
000000
000000
000000
000000
ENDCHAR
STARTCHAR U+0030
ENCODING 48
SWIDTH 1000 0
DWIDTH 17 0
BBX 23 20 -3 -4
BITMAP
000000
000000
003F80
007F00
01C1C0
01C1C0
0E00E0
0E00E0
0E00E0
1C01C0
1C01C0
1C01C0
0E0E00
0E0E00
03F800
07F000
000000
000000
000000
000000
ENDCHAR
STARTCHAR U+002F
ENCODING 47
SWIDTH 1000 0
DWIDTH 17 0
BBX 23 20 -3 -4
BITMAP
000000
000000
000038
000070
0001C0
0001C0
000E00
000E00
003800
007000
01C000
01C000
0E0000
0E0000
380000
700000
000000
000000
000000
000000
ENDCHAR
STARTCHAR U+002E
ENCODING 46
SWIDTH 1000 0
DWIDTH 17 0
BBX 23 20 -3 -4
BITMAP
000000
000000
000000
000000
000000
000000
000000
000000
000000
000000
000000
000000
03E000
03E000
03E000
07C000
000000
000000
000000
000000
ENDCHAR
STARTCHAR U+002D
ENCODING 45
SWIDTH 1000 0
DWIDTH 17 0
BBX 23 20 -3 -4
BITMAP
000000
000000
000000
000000
000000
000000
000000
000000
0FFFE0
1FFFC0
000000
000000
000000
000000
000000
000000
000000
000000
000000
000000
ENDCHAR
STARTCHAR U+002C
ENCODING 44
SWIDTH 1000 0
DWIDTH 17 0
BBX 23 20 -3 -4
BITMAP
000000
000000
000000
000000
000000
000000
000000
000000
000000
000000
000000
000000
03E000
03E000
038000
070000
1C0000
1C0000
000000
000000
ENDCHAR
STARTCHAR U+002B
ENCODING 43
SWIDTH 1000 0
DWIDTH 17 0
BBX 23 20 -3 -4
BITMAP
000000
000000
000000
000000
001C00
001C00
003800
003800
0FFFE0
1FFFC0
007000
007000
00E000
00E000
000000
000000
000000
000000
000000
000000
ENDCHAR
STARTCHAR U+002A
ENCODING 42
SWIDTH 1000 0
DWIDTH 17 0
BBX 23 20 -3 -4
BITMAP
000000
000000
000000
000000
01C1C0
01C1C0
00EE00
00EE00
0FFFE0
1FFFC0
01DC00
01DC00
0E0E00
0E0E00
000000
000000
000000
000000
000000
000000
ENDCHAR
STARTCHAR U+0029
ENCODING 41
SWIDTH 1000 0
DWIDTH 17 0
BBX 23 20 -3 -4
BITMAP
000000
000000
003800
007000
001C00
001C00
000E00
000E00
000E00
001C00
001C00
001C00
00E000
00E000
038000
070000
000000
000000
000000
000000
ENDCHAR
STARTCHAR U+0028
ENCODING 40
SWIDTH 1000 0
DWIDTH 17 0
BBX 23 20 -3 -4
BITMAP
000000
000000
000380
000700
001C00
001C00
00E000
00E000
00E000
01C000
01C000
01C000
00E000
00E000
003800
007000
000000
000000
000000
000000
ENDCHAR
STARTCHAR U+0027
ENCODING 39
SWIDTH 1000 0
DWIDTH 17 0
BBX 23 20 -3 -4
BITMAP
000000
000000
000F80
001F00
001C00
001C00
00E000
00E000
000000
000000
000000
000000
000000
000000
000000
000000
000000
000000
000000
000000
ENDCHAR
STARTCHAR U+0026
ENCODING 38
SWIDTH 1000 0
DWIDTH 17 0
BBX 23 20 -3 -4
BITMAP
000000
000000
00FE00
01FC00
070700
070700
0E0E00
0E0E00
03F800
07F000
1C1DC0
1C1DC0
380E00
380E00
0FFB80
1FF700
000000
000000
000000
000000
ENDCHAR
STARTCHAR U+0025
ENCODING 37
SWIDTH 1000 0
DWIDTH 17 0
BBX 23 20 -3 -4
BITMAP
000000
000000
00E038
01C070
0771C0
0771C0
038E00
038E00
003800
007000
01C700
01C700
0E3B80
0E3B80
380E00
701C00
000000
000000
000000
000000
ENDCHAR
STARTCHAR U+0024
ENCODING 36
SWIDTH 1000 0
DWIDTH 17 0
BBX 23 20 -3 -4
BITMAP
000000
000000
000E00
001C00
01FFC0
01FFC0
0E3800
0E3800
03FF80
07FF00
0071C0
0071C0
0FFE00
0FFE00
00E000
01C000
000000
000000
000000
000000
ENDCHAR
STARTCHAR U+0023
ENCODING 35
SWIDTH 1000 0
DWIDTH 17 0
BBX 23 20 -3 -4
BITMAP
000000
000000
00E380
01C700
01C700
01C700
0FFF80
0FFF80
038E00
071C00
1FFF00
1FFF00
0E3800
0E3800
0E3800
1C7000
000000
000000
000000
000000
ENDCHAR
STARTCHAR U+0022
ENCODING 34
SWIDTH 1000 0
DWIDTH 17 0
BBX 23 20 -3 -4
BITMAP
000000
000000
00E380
01C700
01C700
01C700
038E00
038E00
000000
000000
000000
000000
000000
000000
000000
000000
000000
000000
000000
000000
ENDCHAR
STARTCHAR U+0021
ENCODING 33
SWIDTH 1000 0
DWIDTH 17 0
BBX 23 20 -3 -4
BITMAP
000000
000000
000E00
001C00
001C00
001C00
003800
003800
003800
007000
007000
007000
000000
000000
00E000
01C000
000000
000000
000000
000000
ENDCHAR
STARTCHAR U+2E2E
ENCODING 11822
SWIDTH 1000 0
DWIDTH 17 0
BBX 23 20 -3 -4
BITMAP
000000
000000
00FFE0
01FFC0
070070
070070
03E000
03E000
003800
007000
007000
007000
000000
000000
00E000
01C000
000000
000000
000000
000000
ENDCHAR
STARTCHAR U+00b7
ENCODING 183
SWIDTH 1000 0
DWIDTH 17 0
BBX 23 20 -3 -4
BITMAP
000000
000000
000000
000000
000000
000000
000000
000000
003800
007000
000000
000000
000000
000000
000000
000000
000000
000000
000000
000000
ENDCHAR
STARTCHAR U+00A3
ENCODING 163
SWIDTH 1000 0
DWIDTH 17 0
BBX 23 20 -3 -4
BITMAP
000000
000000
000FE0
001FC0
007070
007070
00E000
00E000
0FFE00
1FFC00
01C000
01C000
0FF800
0FF800
3B8F80
771F00
1C0000
1C0000
000000
000000
ENDCHAR
STARTCHAR U+2260
ENCODING 8800
SWIDTH 1000 0
DWIDTH 17 0
BBX 23 20 -3 -4
BITMAP
000000
000000
000038
000070
0001C0
0001C0
0FFFE0
0FFFE0
003800
007000
1FFFC0
1FFFC0
0E0000
0E0000
380000
700000
000000
000000
000000
000000
ENDCHAR
STARTCHAR U+03C0
ENCODING 960
SWIDTH 1000 0
DWIDTH 17 0
BBX 23 20 -3 -4
BITMAP
000000
000000
000000
000000
000000
000000
0FFFE0
0FFFE0
00E380
01C700
01C700
01C700
038E00
038E00
0E0E00
1C1C00
000000
000000
000000
000000
ENDCHAR
STARTCHAR U+2265
ENCODING 8805
SWIDTH 1000 0
DWIDTH 17 0
BBX 23 20 -3 -4
BITMAP
000000
000000
038000
070000
007000
007000
000E00
000E00
0000E0
0001C0
001C00
001C00
038000
038000
380000
700000
7FFF00
7FFF00
000000
000000
ENDCHAR
STARTCHAR U+2264
ENCODING 8804
SWIDTH 1000 0
DWIDTH 17 0
BBX 23 20 -3 -4
BITMAP
000000
000000
000038
000070
000700
000700
00E000
00E000
0E0000
1C0000
01C000
01C000
003800
003800
000380
000700
7FFF00
7FFF00
000000
000000
ENDCHAR
STARTCHAR U+2502
ENCODING 9474
SWIDTH 1000 0
DWIDTH 17 0
BBX 23 20 -3 -4
BITMAP
000E00
000E00
000E00
001C00
001C00
001C00
003800
003800
003800
007000
007000
007000
00E000
00E000
00E000
01C000
01C000
01C000
038000
038000
ENDCHAR
STARTCHAR U+252C
ENCODING 9516
SWIDTH 1000 0
DWIDTH 17 0
BBX 23 20 -3 -4
BITMAP
000000
000000
000000
000000
000000
000000
000000
000000
0FFFF8
1FFFF0
007000
007000
00E000
00E000
00E000
01C000
01C000
01C000
038000
038000
ENDCHAR
STARTCHAR U+2534
ENCODING 9524
SWIDTH 1000 0
DWIDTH 17 0
BBX 23 20 -3 -4
BITMAP
000E00
000E00
000E00
001C00
001C00
001C00
003800
003800
0FFFF8
1FFFF0
000000
000000
000000
000000
000000
000000
000000
000000
000000
000000
ENDCHAR
STARTCHAR U+2524
ENCODING 9508
SWIDTH 1000 0
DWIDTH 17 0
BBX 23 20 -3 -4
BITMAP
000E00
000E00
000E00
001C00
001C00
001C00
003800
003800
0FF800
1FF000
007000
007000
00E000
00E000
00E000
01C000
01C000
01C000
038000
038000
ENDCHAR
STARTCHAR U+251C
ENCODING 9500
SWIDTH 1000 0
DWIDTH 17 0
BBX 23 20 -3 -4
BITMAP
000E00
000E00
000E00
001C00
001C00
001C00
003800
003800
003FF8
007FF0
007000
007000
00E000
00E000
00E000
01C000
01C000
01C000
038000
038000
ENDCHAR
STARTCHAR U+23BD
ENCODING 9149
SWIDTH 1000 0
DWIDTH 17 0
BBX 23 20 -3 -4
BITMAP
000000
000000
000000
000000
000000
000000
000000
000000
000000
000000
000000
000000
000000
000000
000000
000000
7FFFC0
7FFFC0
000000
000000
ENDCHAR
STARTCHAR U+23BC
ENCODING 9148
SWIDTH 1000 0
DWIDTH 17 0
BBX 23 20 -3 -4
BITMAP
000000
000000
000000
000000
000000
000000
000000
000000
000000
000000
000000
000000
3FFFE0
3FFFE0
000000
000000
000000
000000
000000
000000
ENDCHAR
STARTCHAR U+2500
ENCODING 9472
SWIDTH 1000 0
DWIDTH 17 0
BBX 23 20 -3 -4
BITMAP
000000
000000
000000
000000
000000
000000
000000
000000
0FFFF8
1FFFF0
000000
000000
000000
000000
000000
000000
000000
000000
000000
000000
ENDCHAR
STARTCHAR U+23BB
ENCODING 9147
SWIDTH 1000 0
DWIDTH 17 0
BBX 23 20 -3 -4
BITMAP
000000
000000
000000
000000
07FFFC
07FFFC
000000
000000
000000
000000
000000
000000
000000
000000
000000
000000
000000
000000
000000
000000
ENDCHAR
STARTCHAR U+23BA
ENCODING 9146
SWIDTH 1000 0
DWIDTH 17 0
BBX 23 20 -3 -4
BITMAP
03FFFE
03FFFE
000000
000000
000000
000000
000000
000000
000000
000000
000000
000000
000000
000000
000000
000000
000000
000000
000000
000000
ENDCHAR
STARTCHAR U+253C
ENCODING 9532
SWIDTH 1000 0
DWIDTH 17 0
BBX 23 20 -3 -4
BITMAP
000E00
000E00
000E00
001C00
001C00
001C00
003800
003800
0FFFF8
1FFFF0
007000
007000
00E000
00E000
00E000
01C000
01C000
01C000
038000
038000
ENDCHAR
STARTCHAR U+2514
ENCODING 9492
SWIDTH 1000 0
DWIDTH 17 0
BBX 23 20 -3 -4
BITMAP
000E00
000E00
000E00
001C00
001C00
001C00
003800
003800
003FF8
007FF0
000000
000000
000000
000000
000000
000000
000000
000000
000000
000000
ENDCHAR
STARTCHAR U+250C
ENCODING 9484
SWIDTH 1000 0
DWIDTH 17 0
BBX 23 20 -3 -4
BITMAP
000000
000000
000000
000000
000000
000000
000000
000000
003FF8
007FF0
007000
007000
00E000
00E000
00E000
01C000
01C000
01C000
038000
038000
ENDCHAR
STARTCHAR U+2510
ENCODING 9488
SWIDTH 1000 0
DWIDTH 17 0
BBX 23 20 -3 -4
BITMAP
000000
000000
000000
000000
000000
000000
000000
000000
0FF800
1FF000
007000
007000
00E000
00E000
00E000
01C000
01C000
01C000
038000
038000
ENDCHAR
STARTCHAR U+2518
ENCODING 9496
SWIDTH 1000 0
DWIDTH 17 0
BBX 23 20 -3 -4
BITMAP
000E00
000E00
000E00
001C00
001C00
001C00
003800
003800
0FF800
1FF000
000000
000000
000000
000000
000000
000000
000000
000000
000000
000000
ENDCHAR
STARTCHAR U+240B
ENCODING 9227
SWIDTH 1000 0
DWIDTH 17 0
BBX 23 20 -3 -4
BITMAP
000000
000000
038380
070700
070700
070700
03B800
03B800
03B800
077000
01FFC0
01FFC0
003800
003800
003800
007000
007000
007000
00E000
00E000
ENDCHAR
STARTCHAR U+2424
ENCODING 9252
SWIDTH 1000 0
DWIDTH 17 0
BBX 23 20 -3 -4
BITMAP
000000
000000
038380
070700
07C700
07C700
0EEE00
0EEE00
0E3E00
1C7C00
1C7C00
1C7C00
00E000
00E000
00E000
01C000
01C000
01C000
03FE00
03FE00
ENDCHAR
STARTCHAR U+00B1
ENCODING 177
SWIDTH 1000 0
DWIDTH 17 0
BBX 23 20 -3 -4
BITMAP
000000
000000
000000
000000
001C00
001C00
003800
003800
0FFFE0
1FFFC0
007000
007000
00E000
00E000
3FFF80
7FFF00
000000
000000
000000
000000
ENDCHAR
STARTCHAR U+00B0
ENCODING 176
SWIDTH 1000 0
DWIDTH 17 0
BBX 23 20 -3 -4
BITMAP
000000
000000
003F80
007F00
01C1C0
01C1C0
00FE00
00FE00
000000
000000
000000
000000
000000
000000
000000
000000
000000
000000
000000
000000
ENDCHAR
STARTCHAR U+240A
ENCODING 9226
SWIDTH 1000 0
DWIDTH 17 0
BBX 23 20 -3 -4
BITMAP
000000
000000
038000
070000
070000
070000
0E0000
0E0000
0E0000
1C0000
1FFFC0
1FFFC0
00E000
00E000
00FE00
01FC00
01C000
01C000
038000
038000
ENDCHAR
STARTCHAR U+240D
ENCODING 9229
SWIDTH 1000 0
DWIDTH 17 0
BBX 23 20 -3 -4
BITMAP
000000
000000
00FE00
01FC00
070000
070000
0E0000
0E0000
0E0000
1C0000
07FF00
07FF00
00E380
00E380
00FE00
01FC00
01C700
01C700
038E00
038E00
ENDCHAR
STARTCHAR U+240C
ENCODING 9228
SWIDTH 1000 0
DWIDTH 17 0
BBX 23 20 -3 -4
BITMAP
000000
000000
03FE00
07FC00
070000
070000
0FE000
0FE000
0E0000
1C0000
1C7FC0
1C7FC0
00E000
00E000
00FE00
01FC00
01C000
01C000
038000
038000
ENDCHAR
STARTCHAR U+2409
ENCODING 9225
SWIDTH 1000 0
DWIDTH 17 0
BBX 23 20 -3 -4
BITMAP
000000
000000
038E00
071C00
071C00
071C00
0FF800
0FF800
0E3800
1C7000
1DFFC0
1DFFC0
003800
003800
003800
007000
007000
007000
00E000
00E000
ENDCHAR
STARTCHAR U+2592
ENCODING 9618
SWIDTH 1000 0
DWIDTH 17 0
BBX 23 20 -3 -4
BITMAP
000000
000000
038E38
071C70
01C1C0
01C1C0
0E38E0
0E38E0
038380
070700
1C71C0
1C71C0
0E0E00
0E0E00
38E380
71C700
000000
000000
000000
000000
ENDCHAR
STARTCHAR U+25C6
ENCODING 9670
SWIDTH 1000 0
DWIDTH 17 0
BBX 23 20 -3 -4
BITMAP
000000
000000
000E00
001C00
007F00
007F00
03FF80
03FF80
0FFFE0
1FFFC0
07FF00
07FF00
03F800
03F800
00E000
01C000
000000
000000
000000
000000
ENDCHAR
STARTCHAR U+0020
ENCODING 32
SWIDTH 1000 0
DWIDTH 17 0
BBX 23 20 -3 -4
BITMAP
000000
000000
000000
000000
000000
000000
000000
000000
000000
000000
000000
000000
000000
000000
000000
000000
000000
000000
000000
000000
ENDCHAR
ENDFONT
